<?xml version="1.0" encoding="UTF-8" standalone="no"?>
<!DOCTYPE svg PUBLIC "-//W3C//DTD SVG 1.1//EN" "http://www.w3.org/Graphics/SVG/1.1/DTD/svg11.dtd">
<svg version="1.1" xmlns="http://www.w3.org/2000/svg" xmlns:xlink="http://www.w3.org/1999/xlink" preserveAspectRatio="xMidYMid meet" viewBox="59.89283441139747 55.008663841214826 461.066698537995 446.46534597528773" width="411.07" height="396.47"><defs><path d="M492.48 317.22C471.79 424.48 364.45 494.09 252.93 472.57C141.42 451.06 67.68 346.51 88.37 239.26C109.06 132 216.4 62.4 327.92 83.91C439.44 105.43 513.17 209.97 492.48 317.22Z" id="dD5nEb0V"></path><path d="M428.93 206.38L430.88 206.58L432.81 206.85L434.71 207.19L436.59 207.61L438.44 208.1L440.26 208.65L442.04 209.28L443.8 209.97L445.52 210.73L447.2 211.54L448.85 212.42L450.45 213.36L452.02 214.36L453.55 215.42L455.03 216.53L456.46 217.69L457.85 218.91L459.19 220.18L460.48 221.5L461.71 222.86L462.9 224.27L464.03 225.73L465.1 227.23L466.12 228.77L467.07 230.35L467.97 231.97L468.8 233.62L469.57 235.32L470.27 237.04L470.9 238.8L471.47 240.59L471.97 242.41L472.39 244.25L472.74 246.12L473.01 248.02L473.21 249.94L473.33 251.88L473.37 253.84L473.33 255.81L473.21 257.75L473.01 259.67L472.74 261.56L472.39 263.44L471.97 265.28L471.47 267.1L470.9 268.89L470.27 270.65L469.57 272.37L468.8 274.06L467.97 275.72L467.07 277.34L466.12 278.92L465.1 280.46L464.03 281.96L462.9 283.42L461.71 284.83L460.48 286.19L459.19 287.51L457.85 288.78L456.46 289.99L455.03 291.16L453.55 292.27L452.02 293.33L450.45 294.32L448.85 295.27L447.2 296.15L445.52 296.96L443.8 297.72L442.04 298.41L440.26 299.03L438.44 299.59L436.59 300.08L434.71 300.5L432.81 300.84L430.88 301.11L429.6 301.24L429.51 301.79L428.75 304.95L427.78 308.07L426.6 311.15L425.23 314.18L425.1 314.43L425.25 314.63L427.05 317.27L428.7 320L430.19 322.8L431.53 325.69L432.7 328.65L433.71 331.69L434.55 334.81L435.21 337.97L435.68 341.13L435.97 344.31L436.07 347.49L436.01 350.67L435.76 353.85L435.35 357.02L434.77 360.18L434.02 363.33L433.11 366.46L432.04 369.57L430.81 372.66L429.43 375.73L427.9 378.76L426.22 381.77L424.39 384.73L422.43 387.66L420.32 390.55L418.08 393.39L415.7 396.18L413.19 398.92L410.56 401.61L407.8 404.23L404.91 406.8L401.91 409.3L398.8 411.73L395.57 414.08L392.23 416.37L388.78 418.57L385.23 420.69L381.57 422.73L377.82 424.68L373.97 426.54L370.03 428.3L366 429.97L361.88 431.53L357.68 432.99L353.39 434.34L349.03 435.58L344.59 436.7L340.13 437.7L335.67 438.56L331.24 439.29L326.83 439.88L322.45 440.34L318.1 440.68L313.79 440.88L309.52 440.96L305.29 440.91L301.11 440.74L296.98 440.45L292.91 440.03L288.9 439.5L284.95 438.86L281.07 438.09L277.27 437.22L273.54 436.23L269.89 435.13L266.33 433.92L262.85 432.61L259.47 431.19L256.19 429.66L253.01 428.03L249.93 426.31L246.96 424.48L244.11 422.56L241.37 420.54L238.76 418.43L236.27 416.22L233.91 413.93L231.69 411.54L229.6 409.07L227.65 406.51L225.85 403.87L224.2 401.14L222.71 398.33L221.37 395.45L220.2 392.48L219.19 389.44L218.35 386.33L217.69 383.17L217.22 380L216.93 376.83L216.83 373.65L216.9 370.47L217.14 367.29L217.55 364.12L218.13 360.96L218.88 357.81L219.14 356.94L217.18 356.13L213.08 354.28L209.11 352.34L205.26 350.31L201.55 348.2L197.98 346L194.55 343.72L192.06 341.94L191.01 343.27L189.71 344.8L188.35 346.27L186.95 347.68L185.5 349.03L184.01 350.31L182.47 351.53L180.89 352.68L179.26 353.76L177.6 354.77L175.9 355.7L174.17 356.56L172.4 357.34L170.59 358.04L168.76 358.65L166.9 359.19L165 359.64L163.08 360.01L161.13 360.28L159.16 360.47L157.17 360.56L155.18 360.56L153.2 360.46L151.24 360.27L149.31 360L147.4 359.63L145.51 359.18L143.65 358.65L141.82 358.03L140.01 357.33L138.24 356.55L136.5 355.7L134.79 354.77L133.12 353.77L131.49 352.69L129.9 351.54L128.35 350.33L126.84 349.05L125.37 347.7L123.95 346.29L122.58 344.82L121.26 343.29L119.98 341.71L118.76 340.06L117.59 338.37L116.48 336.62L115.42 334.82L114.42 332.97L113.49 331.07L112.61 329.13L111.8 327.15L111.05 325.12L110.36 323.05L109.75 320.95L109.21 318.81L108.73 316.64L108.33 314.43L108.01 312.19L107.76 309.92L107.58 307.63L107.49 305.31L107.48 302.99L107.55 300.68L107.69 298.41L107.92 296.16L108.22 293.93L108.59 291.74L109.04 289.58L109.56 287.45L110.14 285.35L110.8 283.3L111.52 281.28L112.31 279.3L113.16 277.36L114.07 275.47L115.05 273.62L116.08 271.82L117.17 270.08L118.31 268.38L119.52 266.74L120.77 265.15L122.07 263.62L123.43 262.14L124.83 260.73L126.28 259.38L127.78 258.1L129.32 256.88L130.9 255.73L132.52 254.66L134.18 253.65L135.88 252.72L137.61 251.86L139.38 251.08L141.19 250.38L143.02 249.76L144.89 249.22L146.78 248.77L148.7 248.41L150.65 248.13L152.62 247.95L154.61 247.86L156.61 247.86L158.58 247.95L160.54 248.14L162.47 248.42L164.39 248.78L166.27 249.23L168.13 249.77L169.97 250.38L171.77 251.08L173.54 251.86L175.28 252.71L176.99 253.65L178.32 254.44L179.71 252.93L182.36 250.29L185.17 247.73L188.14 245.23L191.27 242.8L194.55 240.45L197.98 238.17L201.55 235.98L205.26 233.86L209.11 231.84L213.08 229.89L217.18 228.04L221.41 226.28L225.74 224.62L230.2 223.05L234.76 221.59L239.42 220.22L244.19 218.96L249.05 217.81L254 216.77L259.04 215.84L264.16 215.03L269.36 214.34L274.63 213.76L279.97 213.31L285.38 212.98L290.85 212.79L296.38 212.72L301.9 212.79L307.37 212.98L312.78 213.31L318.12 213.76L323.39 214.34L328.59 215.03L333.71 215.84L338.75 216.77L343.7 217.81L348.56 218.96L353.33 220.22L357.99 221.59L362.55 223.05L367.01 224.62L371.35 226.28L375.57 228.04L379.67 229.89L382.37 231.22L382.85 230.35L383.81 228.77L384.82 227.23L385.89 225.73L387.02 224.27L388.21 222.86L389.45 221.5L390.73 220.18L392.07 218.91L393.46 217.69L394.9 216.53L396.38 215.42L397.9 214.36L399.47 213.36L401.07 212.42L402.72 211.54L404.4 210.73L406.12 209.97L407.88 209.28L409.67 208.65L411.48 208.1L413.33 207.61L415.21 207.19L417.11 206.85L419.04 206.58L420.99 206.38L422.97 206.27L424.96 206.23L426.96 206.27L428.93 206.38Z" id="agXibsdLz"></path><path d="M316.09 119.17C318.01 124.28 319.73 130.29 320.88 135.78C322.09 141.34 322.09 151.81 320.94 153.85C320.18 155.32 320.11 155.26 317.49 151.3C315.32 147.98 310.53 142.68 305.68 138.27C302.68 135.59 293.1 130.03 286.07 126.97C279.37 123.96 266.21 120.39 256.69 118.92C240.53 116.43 226.42 115.6 205.6 115.79C187.52 115.92 186.57 115.92 182.1 114.51C179.48 113.68 176.28 113.11 174.81 113.23C172.58 113.43 171.94 113.75 170.92 115.47C169.32 118.22 170.02 120.26 174.94 127.67C182.1 138.4 191.68 145.61 204.96 150.15C214.54 153.41 219.84 157.11 222.2 162.09C223.74 165.35 223.48 166.18 221.37 164.84C216.2 161.58 208.41 159.99 201.96 160.94C197.04 161.71 196.66 161.9 196.66 164.2C196.66 165.61 197.23 166.5 199.08 167.84C204.32 171.74 206.68 175.63 207.32 181.44C207.71 185.66 207.45 185.79 203.94 183.55C198.25 179.91 178.39 178.51 174.75 181.44C174.66 181.52 174.21 181.88 173.41 182.53C175.44 186.55 176.57 188.79 176.79 189.24C180.12 195.88 180.12 196.01 180.18 201.95C180.24 208.4 179.67 210.82 176.6 216.57C174.94 219.7 168.56 228.26 167.21 229.03C166.96 229.22 164.47 228.26 161.72 226.92C158.98 225.64 155.46 224.11 153.87 223.66C152.27 223.21 150.16 222.51 149.08 222.13C146.39 221.11 132.47 221.17 129.28 222.19C112.99 227.56 101.62 242.44 94.72 267.35C92.74 274.69 90.64 288.93 90.64 295.45C90.64 299.34 92.04 311.03 93.13 316.21C95.04 325.4 99.39 335.24 105.33 343.67C107.63 346.99 109.99 350.44 110.56 351.33C112.93 354.97 121.17 362.57 127.04 366.47C131.58 369.53 138.22 372.79 143.65 374.58C145.82 375.28 160.12 377.52 164.91 377.52C172.71 377.52 177.82 376.62 185.1 374.07C187.72 373.18 190.08 372.6 190.33 372.86C190.59 373.18 191.61 375.22 192.57 377.52C196.78 387.1 202.28 396.1 209.56 405.3C213.07 409.77 224.89 421.14 229.87 424.91C234.53 428.36 243.15 433.59 247.75 435.77C251.39 437.49 260.08 440.87 262.12 441.39C263.21 441.71 265.63 442.34 267.55 442.85C269.47 443.37 273.11 444.13 275.53 444.58C278.02 445.03 281.41 445.6 283.07 445.92C287.29 446.69 312.77 446.62 317.94 445.86C320.24 445.47 324.01 444.9 326.31 444.52C330.78 443.81 332.57 443.43 341.32 441.39C348.21 439.73 348.6 439.6 359.52 436.02C367.38 433.47 375.04 430.59 380.47 428.23C381.55 427.72 383.47 426.95 384.62 426.44C395.73 421.65 408.12 415.46 418.28 409.64C436.54 399.11 451.74 386.2 459.54 374.64C472.44 355.55 471.54 335.75 456.98 317.16C453.47 312.69 446.7 305.79 442.99 302.98C440.7 301.2 441.14 300.43 444.97 299.92C452.77 298.83 462.41 294.55 468.67 289.38C479.78 280.18 485.27 263.77 483.42 245.76C482.72 239.05 480.93 230.05 479.72 227.11C474.74 215.1 468.09 207.5 458.26 202.65C450.02 198.56 443.51 197.28 431.24 197.28C425.56 197.35 419.81 197.6 418.47 197.99C417.13 198.31 414.89 198.69 413.49 198.82C411 199.01 410.93 198.94 411.06 197.09C411.19 194.54 410.1 185.72 409.21 181.76C408.06 176.78 404.16 168.16 400.71 162.92C397.27 157.69 389.28 149.38 383.79 145.23C378.17 141.02 369.8 136.1 368.21 136.1C365.91 136.1 364.95 138.59 365.84 142.1C366.74 145.87 366.74 150.28 365.65 154.68C364.76 158.52 362.84 162.92 362.14 162.92C361.88 162.92 361.31 161.39 360.86 159.54C359.65 154.94 355.75 145.93 352.56 140.57C345.47 128.69 333.72 117.51 322.03 111.57C318.13 109.66 317.49 109.59 315.51 110.93C313.79 112.15 313.92 113.3 316.09 119.17ZM303.06 152.58C307.91 158.45 311.62 168.03 311.62 174.55C311.62 177.04 310.79 176.78 308.36 173.59C299.36 162.03 284.86 150.21 270.55 142.93C260.33 137.7 249.54 133.61 240.73 131.63C238.81 131.18 236.64 130.61 235.94 130.35C234.08 129.58 244.11 129.58 250.11 130.35C277.9 133.99 293.03 140.31 303.06 152.58ZM395.54 175.7C399.69 185.98 399.44 196.33 394.84 206.35C393.37 209.48 393.05 207.82 394.01 202.07C395.22 194.28 392.99 180.49 388.2 166.69C387.56 164.78 386.98 162.99 386.98 162.73C386.98 161.84 388 162.35 388.83 163.69C392.22 168.99 394.58 173.21 395.54 175.7ZM462.41 238.93C463.69 242.5 463.88 244.23 463.88 251.7C463.94 260.13 463.88 260.45 461.9 264.54C459.34 269.71 454.81 274.12 449.32 276.67C445.42 278.46 437.82 280.38 437.12 279.67C436.93 279.55 437.12 277.69 437.5 275.59C437.95 273.35 438.01 269.77 437.76 266.71C436.93 257 436.48 258.02 441.59 256.81C447.34 255.34 448.3 254.96 450.08 253.42C452 251.64 451.87 250.61 449.19 248.12C445.68 244.8 442.04 245.12 437.63 249.34C437.49 249.46 436.81 250.1 435.59 251.25C435.24 250.33 435.05 249.82 435.01 249.72C434.69 248.89 433.48 245.31 432.33 241.8C431.18 238.29 429.14 232.99 427.79 230.11C425.05 224.11 424.98 223.79 426.26 222C427.99 219.77 438.2 219.45 444.78 221.49C453.6 224.24 459.03 229.54 462.41 238.93ZM268.83 243.01C271.89 243.97 282.24 248.06 287.99 250.61C305.23 258.28 319.16 257.89 340.68 249.14C344.38 247.61 354.41 243.78 356.65 243.08C376.19 236.43 396.18 236.75 407.93 243.84C418.41 250.23 423.13 258.66 424.6 273.41C425.05 277.76 425.05 281.01 424.66 282.67C424.35 284.08 424.03 286.06 424.03 287.15C424.03 290.02 419.81 297.75 416.23 301.45C413.36 304.45 408.06 308.54 407.1 308.54C406.85 308.54 405.95 309.12 405.06 309.82C404.16 310.52 402.82 311.1 402.06 311.1C401.29 311.1 400.39 311.35 400.01 311.67C399.18 312.5 393.05 314.35 388.9 314.99C385.71 315.57 373.38 316.72 369.87 316.78C367.12 316.91 368.78 318.25 373.57 319.78C389.6 325.02 404.29 336.58 411.57 349.67C416.04 357.78 417.89 367.36 416.43 375.28C414.89 383.52 407.23 395.53 399.12 402.43C387.62 412.2 374.4 420.05 360.8 425.1C359.2 425.67 357.35 426.44 356.65 426.7C355.3 427.27 348.09 429.44 344.19 430.46C322.16 436.34 296.67 437.11 278.79 432.51C270.36 430.4 260.08 422.54 256.31 415.46C248.33 400.57 248.39 383.27 256.5 357.21C257.78 353.25 258.61 349.8 258.35 349.61C258.16 349.42 255.61 349.54 252.73 349.93C234.02 352.55 215.82 348.91 203.62 340.09C198.38 336.32 192.38 328.91 189.89 323.23C186.82 316.33 186.18 314.16 184.84 305.41C183.63 297.88 183.63 292.83 184.78 284.27C186.63 270.73 187.59 267.28 191.42 259.36C199.66 242.63 220.67 234.39 245.84 237.97C255.73 239.37 259.18 240.14 268.83 243.01ZM164.4 263.58C165.68 264.54 165.94 265.75 167.28 277.57C167.6 280.69 168.11 284.85 168.3 286.63C168.56 288.49 168.56 290.02 168.3 290.02C168.04 290.02 166.83 289.57 165.49 289C164.15 288.36 161.34 287.91 158.91 287.91C155.59 287.85 154.38 288.1 152.72 289.25C149.14 291.87 147.8 294.36 147.8 298.71C147.8 304.77 149.84 307.26 154.76 307.26C157.57 307.26 160.51 306.31 167.73 302.98C170.34 301.77 171.11 302.28 171.11 305.22C171.11 306.5 171.37 308.61 171.68 309.82C172 311.03 172.58 314.23 173.03 316.84C173.47 319.46 174.69 324.89 175.64 328.91C176.67 332.94 177.5 336.96 177.5 337.92C177.5 338.81 176.6 340.6 175.52 341.94C175.39 342.1 174.75 342.89 173.6 344.31C168.08 344.31 165.02 344.31 164.4 344.31C151.89 344.31 145.56 343.03 136.62 338.69C121.48 331.34 114.14 317.1 115.1 297.24C115.67 286.32 116.76 281.14 119.82 274.56C122 270.03 126.02 265.24 129.47 263.07C135.34 259.36 145.69 257.7 152.27 259.36C157.25 260.64 163.19 262.68 164.4 263.58Z" id="c1fqvDGPgj"></path><path d="M240.09 282.32C232.81 293.57 236.45 308.13 248.13 314.64C248.9 315.02 251.26 315.73 253.44 316.17C265.76 318.73 277.19 308.25 277.13 294.46C277.07 287.56 273.11 279.71 267.93 276.58C265.12 274.79 264.68 274.85 263.72 277.15C261.99 281.24 256.37 282.39 253.37 279.2C252.48 278.24 251.58 276.9 251.46 276.19C251.2 274.47 249.16 274.28 246.67 275.81C243.47 277.79 242.07 279.2 240.09 282.32Z" id="d2lkSk4tGz"></path><path d="M358.91 302.06C361.72 303.98 367.02 304.04 369.83 302.12C373.54 299.57 374.88 296.69 374.94 291.33C374.94 286.03 373.79 283.28 370.66 280.92C370.55 280.83 369.97 280.41 368.94 279.64C368.1 280.68 367.63 281.25 367.53 281.37C365.75 283.6 363.19 283.47 361.98 280.92C361.53 279.96 360.89 279.19 360.57 279.19C360.25 279.19 358.85 280.28 357.44 281.56C351.82 286.99 352.59 297.72 358.91 302.06Z" id="e10uxX4AO9"></path><path d="M328.1 328.44C330.4 330.67 338.7 330.74 342.98 328.5C345.09 327.48 345.47 324.99 343.87 322.88C342.91 321.6 337.68 320.9 334.99 321.67C330.84 322.82 326.69 326.97 328.1 328.44Z" id="c53rx4T7DW"></path><path d="M293.42 328.25C292.78 330.16 293.67 333.29 295.01 333.99C298.21 335.72 308.04 333.67 310.6 330.86C312.19 329.08 311.68 326.84 309.38 325.69C308.36 325.18 305.3 324.67 302.68 324.54C298.78 324.41 297.5 324.6 295.84 325.63C294.76 326.33 293.67 327.48 293.42 328.25Z" id="a1iLLu9WW4"></path><path d="M353 354.18C352.05 356.47 351.86 357.75 352.24 360.95C352.62 364.46 353 365.16 355.3 367.52C360.61 372.76 367.38 372.76 372.61 367.52C377.85 362.35 377.85 355.45 372.68 350.28C370.89 348.56 369.04 347.47 366.99 346.89C363.48 346 363.67 346 360.92 346.96C357.67 348.17 354.35 351.17 353 354.18Z" id="a1TYr27085"></path></defs><g><g><use xlink:href="#dD5nEb0V" opacity="1" fill="#ddd3a1" fill-opacity="1"></use><g><use xlink:href="#dD5nEb0V" opacity="1" fill-opacity="0" stroke="#866519" stroke-width="50" stroke-opacity="1"></use></g></g><g><use xlink:href="#agXibsdLz" opacity="1" fill="#ffffff" fill-opacity="1"></use></g><g><use xlink:href="#c1fqvDGPgj" opacity="1" fill="#866519" fill-opacity="1"></use><g><use xlink:href="#c1fqvDGPgj" opacity="1" fill-opacity="0" stroke="#f8f8f8" stroke-width="6" stroke-opacity="1"></use></g></g><g><g><use xlink:href="#d2lkSk4tGz" opacity="1" fill="#695316" fill-opacity="1"></use></g><g><use xlink:href="#e10uxX4AO9" opacity="1" fill="#695316" fill-opacity="1"></use></g><g><use xlink:href="#c53rx4T7DW" opacity="1" fill="#695316" fill-opacity="1"></use></g><g><use xlink:href="#a1iLLu9WW4" opacity="1" fill="#695316" fill-opacity="1"></use></g><g><use xlink:href="#a1TYr27085" opacity="1" fill="#695316" fill-opacity="1"></use></g></g></g></svg>