<svg id="svg" version="1.1" xmlns="http://www.w3.org/2000/svg" xmlns:xlink="http://www.w3.org/1999/xlink" width="400" height="86.34920634920634" viewBox="0, 0, 400,86.34920634920634"><g id="svgg"><path id="path0" d="M80.049 0.625 C 80.096 0.969,80.289 1.775,80.479 2.417 C 80.733 3.276,80.825 4.062,80.828 5.397 C 80.833 7.107,80.774 7.676,80.318 10.333 C 80.216 10.929,80.075 11.754,80.005 12.167 C 79.809 13.322,79.177 15.439,78.462 17.333 C 77.761 19.187,75.712 22.760,74.228 24.713 C 73.593 25.548,73.535 25.689,73.790 25.781 C 77.427 27.080,83.394 32.604,86.416 37.469 C 86.946 38.322,87.431 38.960,87.493 38.885 C 87.556 38.811,87.815 38.225,88.070 37.583 C 88.324 36.942,88.593 36.267,88.668 36.083 C 89.086 35.053,89.891 32.033,90.321 29.877 C 91.472 24.111,90.141 16.258,87.433 12.833 C 86.663 11.859,86.333 10.491,86.333 8.271 C 86.333 2.258,85.811 0.791,83.542 0.420 C 83.152 0.356,82.833 0.236,82.833 0.152 C 82.833 0.068,82.188 0.000,81.399 0.000 L 79.965 0.000 80.049 0.625 M83.833 13.101 C 83.833 13.238,84.090 13.750,84.404 14.241 C 85.102 15.333,86.333 17.851,86.333 18.187 C 86.333 18.323,86.403 18.505,86.487 18.592 C 86.637 18.746,86.872 19.725,87.165 21.417 C 87.609 23.984,87.037 31.632,86.418 31.394 C 86.306 31.351,85.131 30.251,83.806 28.950 C 82.482 27.648,80.822 26.171,80.119 25.667 C 78.538 24.533,78.505 24.439,79.245 23.133 C 79.835 22.094,81.255 19.226,81.499 18.583 C 81.568 18.400,81.717 18.025,81.830 17.750 C 82.148 16.974,82.998 14.275,82.999 14.036 C 83.000 13.919,83.111 13.557,83.247 13.233 C 83.484 12.665,83.833 12.587,83.833 13.101 M54.333 22.417 C 52.499 22.681,51.641 22.891,49.547 23.592 C 48.602 23.908,47.723 24.167,47.594 24.167 C 47.465 24.167,46.285 24.716,44.971 25.387 C 42.123 26.843,41.347 27.334,39.160 29.071 C 36.195 31.426,33.473 34.500,31.553 37.667 C 30.890 38.760,29.333 41.854,29.333 42.078 C 29.333 42.145,29.228 42.436,29.099 42.725 C 28.481 44.109,27.808 46.616,27.344 49.259 C 27.247 49.813,27.118 51.407,27.058 52.800 L 26.948 55.333 27.317 55.333 C 27.520 55.333,28.000 55.262,28.385 55.174 C 30.555 54.680,31.469 54.462,31.917 54.331 C 32.192 54.251,32.867 54.060,33.417 53.908 C 34.708 53.550,35.432 53.309,37.167 52.663 C 37.946 52.373,38.753 52.096,38.961 52.048 C 39.168 52.000,39.379 51.894,39.429 51.813 C 39.479 51.733,39.626 51.667,39.755 51.667 C 40.433 51.667,47.496 48.103,48.500 47.255 C 48.637 47.139,48.825 47.015,48.917 46.980 C 49.160 46.888,51.045 45.620,51.305 45.374 C 51.426 45.259,51.683 45.081,51.874 44.978 C 52.065 44.876,52.678 44.458,53.236 44.050 C 53.794 43.642,54.425 43.183,54.640 43.029 C 55.029 42.750,55.239 42.596,57.750 40.742 C 58.483 40.201,59.388 39.494,59.760 39.171 C 60.132 38.848,61.138 38.021,61.996 37.333 C 66.088 34.055,73.333 26.673,73.333 25.782 C 73.333 25.240,69.194 23.627,65.750 22.827 C 63.224 22.240,57.101 22.020,54.333 22.417 M63.750 25.788 C 65.499 26.040,67.999 26.734,67.999 26.967 C 68.001 27.434,61.795 33.288,59.083 35.379 C 58.992 35.449,58.092 36.164,57.083 36.967 C 55.529 38.206,52.557 40.408,49.500 42.587 C 48.344 43.411,43.997 46.071,43.250 46.412 C 42.883 46.580,41.669 47.155,40.551 47.692 C 39.433 48.228,38.442 48.667,38.348 48.667 C 38.255 48.667,37.932 48.774,37.631 48.906 C 37.330 49.038,36.521 49.346,35.833 49.592 C 35.146 49.838,34.433 50.097,34.250 50.168 C 34.067 50.239,33.429 50.422,32.833 50.576 C 32.237 50.729,31.520 50.925,31.238 51.011 C 30.509 51.233,30.500 51.228,30.500 50.586 C 30.500 50.002,30.540 49.795,31.170 47.135 C 33.310 38.101,40.482 30.299,49.667 27.013 C 53.306 25.710,59.488 25.173,63.750 25.788 M132.833 29.767 C 132.329 30.093,131.767 30.429,131.583 30.513 C 131.400 30.597,131.102 30.760,130.921 30.875 C 129.845 31.556,128.815 32.167,128.740 32.167 C 128.535 32.167,126.849 33.517,126.417 34.027 C 124.445 36.356,123.864 41.336,125.465 42.193 C 127.774 43.428,133.438 38.170,132.251 35.894 C 131.536 34.523,132.446 33.695,134.946 33.440 C 136.179 33.314,136.211 33.384,136.300 36.470 L 136.375 39.086 135.672 40.835 C 135.285 41.796,134.872 42.808,134.754 43.083 C 134.505 43.661,134.002 45.178,133.623 46.500 C 133.478 47.004,133.241 47.819,133.096 48.311 C 132.952 48.803,132.833 49.310,132.833 49.438 C 132.833 49.566,132.766 49.801,132.683 49.961 C 132.601 50.120,132.398 50.700,132.232 51.250 C 132.067 51.800,131.872 52.321,131.799 52.408 C 131.726 52.495,131.667 52.673,131.667 52.802 C 131.667 53.042,130.205 56.040,129.498 57.250 C 126.928 61.651,126.629 63.352,128.201 64.625 C 129.060 65.321,129.364 65.307,130.004 64.542 C 130.902 63.469,133.087 59.363,133.485 58.000 C 133.693 57.289,134.277 56.130,135.081 54.833 C 135.536 54.100,136.377 52.297,136.987 50.750 C 137.506 49.434,139.104 46.430,140.710 43.750 C 141.754 42.008,142.750 40.261,142.923 39.866 C 143.239 39.149,143.523 38.914,145.066 38.098 C 146.375 37.407,146.833 37.490,146.833 38.420 C 146.833 40.277,144.617 46.783,143.257 48.917 C 142.745 49.719,142.167 51.152,142.167 51.616 C 142.167 51.739,141.792 52.444,141.333 53.183 C 140.875 53.922,140.500 54.629,140.500 54.755 C 140.500 55.258,140.008 56.814,139.500 57.917 C 137.515 62.226,138.274 65.537,140.892 63.992 C 142.020 63.327,145.430 56.500,146.854 52.055 C 147.804 49.091,150.511 45.069,154.556 40.613 C 157.445 37.431,158.352 37.527,157.674 40.946 C 157.586 41.388,157.392 42.387,157.243 43.167 C 157.094 43.946,156.910 44.808,156.835 45.083 C 156.438 46.526,156.163 47.511,155.918 48.359 C 154.958 51.684,155.160 59.107,156.259 60.847 C 156.483 61.202,156.667 61.547,156.667 61.612 C 156.667 62.290,159.794 64.335,160.824 64.331 C 161.756 64.327,164.513 63.631,164.908 63.299 C 165.309 62.964,165.807 63.165,165.920 63.708 C 166.168 64.898,167.841 66.924,168.911 67.331 C 169.345 67.496,171.450 67.307,172.750 66.987 C 173.854 66.715,176.187 65.461,176.911 64.750 C 177.519 64.153,177.799 63.723,178.621 62.126 C 179.176 61.048,179.958 60.911,180.618 61.777 C 180.874 62.112,181.327 62.639,181.625 62.949 C 181.993 63.331,182.167 63.673,182.167 64.017 C 182.167 66.361,185.095 66.660,186.147 64.422 C 186.486 63.700,188.061 61.787,189.665 60.149 C 190.078 59.727,190.801 58.977,191.272 58.483 C 191.742 57.988,192.905 56.855,193.855 55.964 C 197.478 52.570,197.437 52.557,196.336 56.750 C 195.232 60.951,195.448 62.689,197.316 64.630 C 200.277 67.708,201.771 68.076,205.030 66.529 C 205.793 66.167,206.942 65.628,207.583 65.330 C 209.052 64.648,210.394 63.742,211.270 62.839 L 211.950 62.138 212.046 62.944 C 212.443 66.282,215.406 67.084,216.100 64.041 C 216.576 61.954,217.290 60.682,218.132 60.424 C 218.483 60.316,219.761 60.816,220.000 61.154 C 220.046 61.219,220.458 61.524,220.917 61.832 C 221.375 62.141,222.725 63.086,223.917 63.933 C 227.975 66.817,229.952 67.061,233.878 65.164 C 234.803 64.717,234.840 64.726,235.553 65.579 C 238.382 68.964,245.973 68.807,250.917 65.261 C 251.208 65.052,251.323 65.056,251.833 65.294 C 253.279 65.967,254.953 65.983,256.166 65.334 C 257.913 64.399,259.122 66.249,257.952 68.066 C 257.651 68.534,257.298 69.142,257.169 69.417 C 257.039 69.692,256.135 70.704,255.159 71.667 C 252.517 74.273,252.043 75.504,253.089 77.044 C 254.335 78.878,257.562 78.548,257.893 76.553 C 258.181 74.815,259.654 72.878,262.706 70.224 C 263.739 69.327,265.148 68.027,265.838 67.338 C 267.130 66.047,267.439 65.833,268.586 65.439 C 270.942 64.629,273.635 62.051,273.393 60.838 C 273.193 59.842,272.575 59.814,271.097 60.734 C 270.631 61.024,269.762 61.494,269.167 61.780 C 268.571 62.065,267.671 62.502,267.167 62.751 C 265.984 63.336,263.637 64.333,263.445 64.333 C 263.260 64.333,263.372 63.553,263.745 62.250 C 263.902 61.700,264.139 60.800,264.271 60.250 C 265.128 56.695,265.728 54.869,266.592 53.193 C 267.001 52.399,267.403 51.413,267.486 51.000 C 267.568 50.587,267.872 49.577,268.160 48.754 C 269.088 46.103,269.013 45.453,267.746 45.164 C 265.627 44.681,263.150 47.148,261.891 50.994 C 261.755 51.410,261.469 52.125,261.256 52.583 C 261.042 53.042,260.740 53.792,260.585 54.250 C 259.672 56.936,256.501 60.915,254.536 61.838 L 253.784 62.192 253.444 61.851 C 252.996 61.403,253.805 57.524,254.673 55.961 C 254.761 55.801,254.833 55.525,254.833 55.345 C 254.833 55.166,254.908 54.973,255.000 54.917 C 255.092 54.860,255.167 54.687,255.168 54.532 C 255.168 54.377,255.264 54.063,255.381 53.833 C 255.568 53.467,255.791 52.791,256.349 50.905 C 256.923 48.964,255.149 46.997,253.288 47.511 C 251.776 47.928,250.793 50.092,250.511 53.625 C 250.432 54.610,250.203 56.317,250.001 57.417 C 249.713 58.983,249.655 59.761,249.732 61.003 C 249.847 62.857,249.969 62.703,247.679 63.587 C 246.362 64.096,244.911 64.476,242.290 65.000 C 241.055 65.246,240.391 65.038,239.594 64.157 C 239.033 63.536,238.919 63.255,238.991 62.667 C 239.053 62.153,240.610 59.177,241.911 57.083 C 246.031 50.455,245.627 47.050,240.716 47.010 C 240.056 47.004,239.343 47.067,239.133 47.148 C 237.592 47.746,237.138 48.013,236.278 48.828 C 235.115 49.931,234.337 51.451,233.929 53.417 C 233.777 54.150,233.583 55.087,233.498 55.500 C 233.200 56.947,233.138 58.579,233.340 59.667 C 233.451 60.262,233.577 61.059,233.619 61.437 L 233.697 62.123 232.397 62.664 C 229.712 63.782,228.464 63.455,224.542 60.605 C 223.470 59.826,223.428 60.058,224.932 58.443 C 230.334 52.641,230.365 48.605,225.007 48.650 C 222.357 48.672,222.422 48.904,224.069 45.296 C 225.987 41.092,226.795 39.073,227.512 36.694 C 228.865 32.202,225.170 30.726,221.807 34.417 C 221.274 35.002,220.130 37.249,219.007 39.917 C 218.930 40.100,218.704 40.616,218.506 41.062 C 218.308 41.509,217.998 42.259,217.818 42.729 C 217.638 43.199,217.427 43.733,217.348 43.917 C 217.194 44.276,216.788 45.673,216.523 46.750 C 216.145 48.293,215.956 48.945,215.753 49.417 C 215.577 49.824,214.915 51.463,214.002 53.750 C 213.845 54.143,213.459 55.311,213.175 56.251 C 213.064 56.619,212.844 57.592,212.685 58.414 L 212.397 59.910 211.827 59.956 C 211.454 59.986,210.780 60.333,209.881 60.959 C 207.909 62.332,205.746 63.548,203.475 64.562 C 201.306 65.530,198.862 63.282,199.252 60.679 C 199.506 58.980,200.903 55.347,201.975 53.595 C 203.049 51.839,202.033 49.167,200.292 49.167 C 198.631 49.167,194.954 50.352,193.228 51.444 C 192.283 52.042,192.146 51.999,191.705 50.963 C 191.282 49.970,189.834 50.297,188.637 51.656 C 187.695 52.725,186.886 54.149,184.915 58.208 C 183.903 60.292,183.664 60.497,183.011 59.844 C 181.989 58.822,181.681 57.503,181.673 54.116 C 181.662 49.520,178.753 46.512,176.000 48.250 C 175.637 48.479,175.272 48.667,175.189 48.667 C 175.106 48.667,174.823 48.779,174.561 48.916 C 174.298 49.053,173.927 49.165,173.736 49.166 C 173.545 49.166,173.339 49.216,173.278 49.277 C 173.217 49.338,172.801 49.517,172.353 49.675 C 169.785 50.579,165.500 55.924,165.500 58.223 C 165.500 58.660,164.969 59.167,164.511 59.167 C 164.374 59.167,163.657 59.467,162.917 59.833 C 160.788 60.888,160.070 60.802,159.437 59.417 C 158.519 57.407,158.597 52.055,159.577 49.750 C 159.733 49.383,160.010 48.596,160.191 48.000 C 160.373 47.404,160.674 46.579,160.860 46.167 C 161.047 45.754,161.294 45.192,161.409 44.917 C 161.525 44.642,161.716 44.192,161.833 43.917 C 162.289 42.848,162.771 40.154,162.928 37.800 L 163.046 36.017 162.345 35.384 C 160.083 33.341,158.229 33.300,155.333 35.228 C 154.921 35.503,154.546 35.771,154.500 35.823 C 154.454 35.876,153.967 36.251,153.417 36.656 C 152.867 37.062,152.379 37.437,152.333 37.489 C 151.529 38.404,150.902 37.944,150.757 36.333 C 150.464 33.080,148.231 31.592,145.596 32.894 C 144.922 33.227,144.268 33.501,144.143 33.503 C 143.902 33.506,143.132 33.950,142.030 34.723 C 140.858 35.545,140.511 35.118,139.913 32.118 C 139.477 29.928,138.108 29.017,136.083 29.569 C 135.323 29.777,135.205 29.769,134.730 29.482 C 134.034 29.059,133.898 29.080,132.833 29.767 M287.333 34.298 C 287.196 34.346,286.851 34.561,286.568 34.776 C 286.284 34.991,286.011 35.167,285.960 35.167 C 285.693 35.167,281.307 37.897,280.663 38.464 C 278.503 40.367,277.360 45.750,278.833 47.083 C 279.961 48.104,281.990 47.290,284.208 44.926 C 286.014 43.001,286.416 41.954,285.823 40.728 C 285.253 39.552,286.300 38.667,288.424 38.530 C 289.893 38.436,289.910 38.471,289.913 41.730 C 289.917 44.517,289.916 44.522,289.056 46.463 C 288.842 46.947,288.667 47.438,288.667 47.555 C 288.667 47.671,288.602 47.838,288.523 47.925 C 288.444 48.012,288.247 48.496,288.084 49.000 C 287.921 49.504,287.728 50.067,287.656 50.250 C 287.474 50.710,287.047 52.162,286.945 52.667 C 286.899 52.896,286.737 53.496,286.586 54.000 C 286.434 54.504,286.248 55.142,286.171 55.417 C 285.629 57.366,284.711 59.452,283.164 62.250 C 280.492 67.082,280.252 68.388,281.800 69.665 C 282.804 70.492,283.333 70.258,284.426 68.500 C 285.165 67.313,286.931 63.800,287.066 63.250 C 287.209 62.667,287.803 61.433,288.511 60.250 C 289.234 59.044,290.188 57.035,290.998 55.021 C 291.586 53.557,292.477 51.874,293.754 49.815 C 295.205 47.478,295.863 46.332,296.531 44.978 C 297.031 43.966,299.027 42.667,300.082 42.667 C 301.232 42.667,298.991 50.685,296.950 53.876 C 296.627 54.381,296.234 55.234,296.077 55.772 C 295.733 56.952,295.530 57.426,295.086 58.083 C 294.240 59.338,294.271 59.268,293.987 60.583 C 293.868 61.133,293.555 62.071,293.292 62.667 C 292.355 64.783,292.208 65.195,292.012 66.250 C 291.443 69.320,293.880 70.510,295.545 67.976 C 296.083 67.157,297.584 64.162,298.789 61.500 C 299.295 60.382,300.224 57.942,300.756 56.333 C 300.922 55.829,301.247 55.079,301.476 54.667 C 301.706 54.254,301.974 53.764,302.072 53.578 C 303.726 50.436,310.266 43.049,311.181 43.289 C 311.691 43.422,311.637 44.630,310.980 47.708 C 310.877 48.190,310.735 48.883,310.663 49.250 C 310.592 49.617,310.332 50.667,310.086 51.583 C 308.973 55.723,309.003 55.513,309.001 59.354 C 308.999 64.518,309.416 65.959,311.454 67.839 C 313.353 69.590,314.729 69.741,318.004 68.559 C 319.435 68.042,319.370 68.019,319.736 69.193 C 320.001 70.042,320.238 70.394,321.131 71.266 C 322.379 72.484,322.636 72.568,324.421 72.343 C 326.368 72.098,326.989 71.938,327.917 71.445 C 330.605 70.016,330.967 69.706,331.748 68.167 C 332.841 66.013,333.536 65.698,334.390 66.972 C 334.824 67.620,335.881 68.544,336.377 68.709 C 336.515 68.755,336.508 68.911,336.354 69.284 C 335.870 70.452,336.968 72.129,338.020 71.828 C 338.882 71.581,339.308 71.206,339.770 70.289 C 340.796 68.254,348.625 59.415,349.127 59.725 C 349.325 59.848,349.332 59.796,348.772 62.167 C 347.626 67.013,347.734 68.483,349.387 70.492 C 351.689 73.291,353.283 73.785,355.891 72.508 C 358.303 71.327,360.015 70.355,360.621 69.823 L 361.214 69.302 361.648 69.800 C 364.195 72.715,370.979 72.528,375.843 69.410 L 376.987 68.677 377.603 69.430 C 378.695 70.762,380.457 71.187,382.286 70.559 C 386.080 69.256,386.027 72.767,382.197 76.393 C 379.747 78.714,379.333 79.314,379.333 80.551 C 379.333 82.018,380.660 83.392,382.070 83.386 C 382.913 83.383,384.262 82.605,384.469 82.004 C 384.549 81.773,384.747 81.175,384.909 80.677 C 385.445 79.025,386.874 77.426,391.083 73.773 C 391.908 73.057,392.796 72.213,393.057 71.899 C 393.574 71.274,394.152 70.921,395.393 70.472 C 395.838 70.311,396.465 69.970,396.786 69.714 C 397.107 69.459,397.652 69.063,397.998 68.833 C 399.626 67.754,400.000 67.256,400.000 66.167 L 400.000 65.167 399.441 65.167 C 399.073 65.167,398.383 65.453,397.433 66.000 C 396.636 66.458,395.957 66.833,395.923 66.833 C 395.890 66.833,395.087 67.199,394.139 67.645 C 389.501 69.831,389.753 69.823,390.336 67.768 C 390.827 66.038,391.116 64.927,391.488 63.333 C 392.080 60.804,392.556 59.499,393.397 58.105 C 393.666 57.659,393.992 56.871,394.121 56.355 C 394.479 54.920,394.608 54.494,394.988 53.500 C 395.468 52.241,395.595 51.007,395.286 50.596 C 394.960 50.162,393.268 50.040,392.667 50.407 C 392.438 50.547,392.137 50.706,392.000 50.761 C 391.220 51.073,388.667 54.994,388.667 55.880 C 388.667 55.996,388.444 56.540,388.172 57.088 C 387.900 57.635,387.675 58.178,387.672 58.294 C 387.669 58.410,387.598 58.635,387.515 58.794 C 387.431 58.953,387.234 59.458,387.076 59.917 C 386.054 62.887,380.920 68.125,380.144 66.989 C 379.955 66.712,380.072 64.817,380.322 64.083 C 380.416 63.808,380.640 63.133,380.819 62.583 C 380.998 62.033,381.458 60.721,381.841 59.667 C 383.484 55.146,383.512 54.023,382.010 52.958 C 379.558 51.220,377.599 53.719,377.154 59.153 C 377.074 60.123,376.892 61.479,376.750 62.167 C 376.607 62.854,376.451 63.904,376.402 64.500 C 376.271 66.115,376.228 66.226,375.632 66.532 C 372.022 68.383,367.188 69.430,365.987 68.621 C 364.308 67.490,364.565 66.102,367.223 61.948 C 367.559 61.423,367.833 60.952,367.833 60.902 C 367.833 60.852,368.021 60.565,368.250 60.265 C 368.479 59.964,368.667 59.674,368.667 59.619 C 368.667 59.564,368.835 59.234,369.042 58.886 C 370.814 55.893,370.569 52.000,368.609 52.000 C 368.468 52.000,368.307 51.925,368.250 51.833 C 368.102 51.594,365.193 51.632,364.500 51.882 C 362.493 52.608,360.973 54.235,360.309 56.371 C 359.395 59.308,359.047 63.250,359.559 64.869 C 360.354 67.382,360.456 67.069,358.403 68.421 C 354.200 71.189,352.998 71.353,351.729 69.333 C 350.990 68.157,351.133 65.244,352.010 63.627 C 352.096 63.468,352.166 63.243,352.166 63.127 C 352.165 62.808,353.015 60.837,353.475 60.089 C 354.626 58.222,353.276 55.032,351.593 55.641 C 351.299 55.747,350.908 55.833,350.722 55.833 C 350.239 55.833,346.926 57.057,346.667 57.332 C 346.380 57.635,345.129 58.330,345.006 58.254 C 344.925 58.203,344.771 57.901,344.666 57.581 C 343.985 55.517,342.021 57.180,339.940 61.583 C 338.512 64.606,338.463 64.686,337.794 65.064 L 337.172 65.417 336.506 64.690 C 335.601 63.705,335.497 63.243,335.353 59.567 C 335.212 55.973,335.085 55.574,333.617 54.152 C 332.082 52.663,331.242 52.536,329.169 53.479 C 328.389 53.834,327.263 54.287,326.668 54.486 C 324.021 55.373,321.743 57.590,320.061 60.917 C 319.627 61.774,319.465 62.217,319.068 63.626 C 319.036 63.742,318.801 63.922,318.546 64.027 C 318.292 64.132,317.366 64.544,316.489 64.942 C 314.319 65.929,313.782 65.890,313.194 64.703 C 312.464 63.227,312.139 58.441,312.643 56.583 C 312.921 55.560,313.352 54.308,313.503 54.083 C 313.564 53.992,313.715 53.542,313.838 53.083 C 314.042 52.322,314.321 51.620,315.165 49.750 C 315.885 48.156,316.656 44.157,316.664 41.985 C 316.666 41.120,316.622 41.013,316.042 40.480 C 313.363 38.020,311.534 38.242,307.286 41.542 C 304.855 43.431,304.604 43.423,304.421 41.451 C 304.115 38.158,301.909 36.571,299.417 37.851 C 298.867 38.134,298.068 38.471,297.641 38.601 C 297.215 38.730,296.502 39.138,296.058 39.507 C 294.850 40.509,293.873 40.076,293.841 38.524 C 293.784 35.721,291.921 33.874,289.881 34.599 C 289.113 34.871,289.044 34.871,288.413 34.581 C 288.048 34.414,287.712 34.263,287.667 34.244 C 287.621 34.226,287.471 34.251,287.333 34.298 M86.365 41.292 C 85.076 43.854,82.712 47.880,82.328 48.167 C 82.267 48.212,82.037 48.520,81.817 48.851 C 79.526 52.291,75.049 57.143,71.750 59.761 C 70.834 60.488,69.942 61.211,69.768 61.368 C 68.384 62.615,62.936 65.729,59.833 67.046 C 59.512 67.182,58.817 67.490,58.287 67.730 C 57.758 67.970,57.229 68.167,57.112 68.167 C 56.995 68.167,56.829 68.231,56.742 68.310 C 56.655 68.389,56.208 68.576,55.750 68.726 C 55.292 68.876,54.092 69.272,53.083 69.608 C 52.075 69.943,51.025 70.275,50.750 70.346 C 47.959 71.062,46.200 71.494,45.083 71.739 C 44.350 71.899,43.487 72.093,43.167 72.169 C 42.082 72.428,36.965 73.095,34.795 73.262 L 33.506 73.361 33.747 73.828 C 34.538 75.358,41.041 81.333,41.914 81.333 C 41.958 81.333,42.389 81.579,42.872 81.879 C 44.904 83.142,47.743 84.353,50.583 85.167 C 52.154 85.618,52.500 85.695,54.083 85.945 C 55.978 86.244,62.098 86.428,62.391 86.194 C 62.497 86.110,63.033 85.989,63.583 85.924 C 64.592 85.807,64.961 85.735,67.083 85.246 C 69.763 84.629,73.123 83.254,75.295 81.886 C 75.778 81.582,76.212 81.333,76.260 81.333 C 76.357 81.333,78.202 80.000,78.333 79.835 C 78.379 79.778,78.581 79.619,78.782 79.482 C 83.436 76.306,88.699 68.491,89.994 62.833 C 90.110 62.329,90.264 61.759,90.337 61.567 C 90.410 61.375,90.524 60.775,90.590 60.234 C 90.657 59.693,90.779 59.069,90.862 58.847 C 91.088 58.243,91.055 50.553,90.821 49.306 C 90.082 45.366,88.026 39.333,87.424 39.333 C 87.384 39.333,86.908 40.215,86.365 41.292 M87.431 49.125 C 87.689 50.446,87.744 51.435,87.728 54.417 C 87.708 58.136,87.687 58.316,86.848 62.000 C 86.291 64.448,83.765 69.657,82.483 71.005 C 82.355 71.140,81.936 71.662,81.553 72.167 C 79.537 74.820,73.230 79.973,71.961 80.005 C 71.845 80.008,71.605 80.120,71.428 80.254 C 70.712 80.796,66.537 82.203,64.917 82.449 C 60.013 83.192,58.153 83.192,53.250 82.449 C 52.581 82.347,50.168 81.706,49.750 81.518 C 49.567 81.436,49.042 81.239,48.583 81.080 C 46.606 80.395,44.128 78.939,40.932 76.583 C 40.495 76.261,40.851 75.835,41.562 75.829 C 41.849 75.827,42.421 75.744,42.833 75.646 C 43.246 75.547,43.996 75.408,44.500 75.336 C 45.353 75.215,47.599 74.690,48.750 74.344 C 49.025 74.262,49.512 74.144,49.833 74.083 C 50.452 73.966,50.653 73.908,52.750 73.247 C 53.483 73.016,54.458 72.709,54.917 72.566 C 55.375 72.422,55.900 72.245,56.083 72.172 C 56.445 72.029,57.713 71.537,58.250 71.333 C 62.247 69.813,66.757 67.502,70.041 65.291 C 71.384 64.387,73.047 63.141,73.333 62.825 C 73.379 62.774,73.713 62.511,74.075 62.241 C 74.437 61.971,74.967 61.525,75.253 61.250 C 75.539 60.975,76.255 60.290,76.845 59.728 C 78.302 58.338,80.212 56.312,81.128 55.183 C 81.544 54.670,82.201 53.875,82.588 53.417 C 83.198 52.693,84.904 50.329,86.373 48.171 C 87.011 47.235,87.074 47.292,87.431 49.125 M174.121 52.397 C 174.420 52.777,174.709 53.560,174.911 54.538 C 174.962 54.788,175.417 55.455,175.922 56.020 C 177.357 57.629,177.358 58.315,175.925 60.792 C 174.438 63.363,172.767 64.667,170.960 64.666 C 169.800 64.665,169.049 64.220,168.935 63.466 C 168.889 63.164,168.744 62.279,168.612 61.500 C 168.209 59.117,169.233 55.957,170.993 54.154 C 171.135 54.009,171.520 53.590,171.851 53.222 C 173.006 51.935,173.591 51.722,174.121 52.397 M239.678 52.506 C 240.424 52.906,239.696 55.017,237.568 58.622 C 236.528 60.384,236.217 58.019,237.113 55.167 C 237.894 52.680,238.612 51.935,239.678 52.506 M222.328 54.129 C 222.920 54.608,222.615 55.362,221.484 56.215 C 219.941 57.378,219.281 56.199,220.640 54.707 C 221.438 53.829,221.803 53.704,222.328 54.129 M25.917 55.667 C 25.733 55.745,25.283 55.816,24.917 55.823 C 24.550 55.830,23.986 55.909,23.662 55.998 C 23.339 56.088,22.402 56.238,21.579 56.331 C 20.756 56.423,19.108 56.616,17.917 56.758 C 16.599 56.915,13.661 57.047,10.417 57.097 C 3.247 57.205,2.361 57.385,2.004 58.805 C 1.831 59.489,0.544 60.992,0.125 60.998 C 0.056 60.999,0.000 61.300,0.000 61.667 C 0.000 62.033,0.062 62.333,0.138 62.333 C 0.215 62.333,0.507 62.652,0.788 63.042 C 3.558 66.882,10.035 70.759,15.750 71.998 C 21.502 73.244,24.467 73.583,29.617 73.583 C 33.084 73.583,33.249 73.531,32.741 72.588 C 32.567 72.265,32.366 72.000,32.295 72.000 C 32.225 72.000,32.167 71.924,32.167 71.832 C 32.167 71.739,31.792 71.065,31.333 70.333 C 30.875 69.602,30.500 68.939,30.500 68.860 C 30.500 68.781,30.327 68.386,30.116 67.983 C 29.904 67.580,29.631 66.987,29.507 66.667 C 29.254 66.007,28.977 65.316,28.672 64.583 C 28.051 63.090,27.433 60.068,27.173 57.250 C 27.088 56.333,27.015 55.565,27.009 55.542 C 26.988 55.447,26.226 55.534,25.917 55.667 M365.482 56.939 C 366.154 57.410,365.491 59.367,363.615 62.450 C 362.565 64.175,362.090 63.410,362.655 60.904 C 363.490 57.203,364.279 56.097,365.482 56.939 M331.500 57.083 C 331.500 57.221,331.425 57.333,331.333 57.333 C 331.242 57.333,331.167 57.221,331.167 57.083 C 331.167 56.946,331.242 56.833,331.333 56.833 C 331.425 56.833,331.500 56.946,331.500 57.083 M328.077 58.051 C 328.310 58.517,328.500 59.035,328.500 59.202 C 328.500 59.623,328.780 60.077,329.792 61.297 C 331.010 62.767,330.938 63.884,329.492 65.948 C 329.130 66.465,328.833 66.981,328.833 67.094 C 328.833 68.056,325.903 69.731,324.390 69.635 C 322.916 69.541,322.696 69.289,322.371 67.309 C 321.847 64.118,322.330 62.336,324.509 59.417 C 326.375 56.918,327.330 56.552,328.077 58.051 M23.994 59.656 C 24.089 59.833,24.166 60.189,24.165 60.447 C 24.163 60.907,24.914 64.257,25.166 64.917 C 25.236 65.100,25.495 65.813,25.740 66.500 C 25.986 67.188,26.367 68.125,26.587 68.583 C 27.297 70.063,27.286 70.085,25.750 70.075 C 23.050 70.057,18.466 69.372,15.833 68.591 C 15.329 68.442,14.692 68.257,14.417 68.180 C 14.142 68.103,13.554 67.881,13.111 67.687 C 12.668 67.492,12.231 67.333,12.139 67.333 C 11.335 67.333,7.012 64.634,5.399 63.125 C 4.205 62.009,4.156 61.848,4.758 61.057 L 5.184 60.500 9.050 60.500 C 11.177 60.500,13.929 60.419,15.167 60.319 C 18.267 60.069,23.198 59.524,23.303 59.420 C 23.489 59.233,23.830 59.349,23.994 59.656 " stroke="none" fill="#18d486" fill-rule="evenodd"></path></g></svg>